<svg width="8" height="33" viewBox="0 0 8 33" fill="none" xmlns="http://www.w3.org/2000/svg">
<path d="M3.99935 18.2085C4.8738 18.2085 5.58268 17.4436 5.58268 16.5002C5.58268 15.5567 4.8738 14.7918 3.99935 14.7918C3.1249 14.7918 2.41602 15.5567 2.41602 16.5002C2.41602 17.4436 3.1249 18.2085 3.99935 18.2085Z" stroke="#F9F9F9" stroke-width="4" stroke-linecap="round" stroke-linejoin="round"/>
<path d="M3.99935 6.25016C4.8738 6.25016 5.58268 5.48532 5.58268 4.54183C5.58268 3.59834 4.8738 2.8335 3.99935 2.8335C3.1249 2.8335 2.41602 3.59834 2.41602 4.54183C2.41602 5.48532 3.1249 6.25016 3.99935 6.25016Z" stroke="#F9F9F9" stroke-width="4" stroke-linecap="round" stroke-linejoin="round"/>
<path d="M3.99935 30.1668C4.8738 30.1668 5.58268 29.402 5.58268 28.4585C5.58268 27.515 4.8738 26.7502 3.99935 26.7502C3.1249 26.7502 2.41602 27.515 2.41602 28.4585C2.41602 29.402 3.1249 30.1668 3.99935 30.1668Z" stroke="#F9F9F9" stroke-width="4" stroke-linecap="round" stroke-linejoin="round"/>
</svg>
